G04 Layer_Color=65535*
%FSLAX25Y25*%
%MOIN*%
G70*
G01*
G75*
%ADD37C,0.01181*%
%ADD38C,0.00787*%
D37*
X221850Y53150D02*
X222835D01*
Y55118D01*
X221850Y56102D02*
Y59055D01*
X225787D01*
Y56102D02*
Y59055D01*
X224803Y53150D02*
Y54134D01*
Y53150D02*
X225787D01*
X224803Y54134D02*
Y55118D01*
X225787Y56102D01*
X221850Y56102D02*
X222835Y55118D01*
X237453Y73492D02*
Y125067D01*
Y73492D02*
X244146D01*
X260051D02*
X285433D01*
X260051Y125067D02*
X285484D01*
X237453D02*
X244146D01*
X95472Y101378D02*
X96457Y100394D01*
X98425D02*
X99410Y101378D01*
X98425Y99409D02*
Y100394D01*
Y98425D02*
X99410D01*
X98425D02*
Y99409D01*
X99410Y101378D02*
Y104331D01*
X95472D02*
X99410D01*
X95472Y101378D02*
Y104331D01*
X96457Y98425D02*
Y100394D01*
X95472Y98425D02*
X96457D01*
X240158Y59055D02*
X248031D01*
X173228Y55118D02*
Y62992D01*
X169291Y59055D02*
X177165D01*
X118110D02*
X125984D01*
X47244Y55118D02*
Y62992D01*
X43307Y59055D02*
X51181D01*
Y114173D02*
X59055D01*
X51181Y145669D02*
X59055D01*
X55118Y110236D02*
Y118110D01*
X131890Y153543D02*
X169291D01*
X228346Y129921D02*
Y194882D01*
X64961Y129921D02*
X228346D01*
X64961D02*
Y194882D01*
X87071Y77976D02*
X102819D01*
X87071Y90772D02*
X102819D01*
X188709Y191858D02*
Y194417D01*
X218197Y163118D02*
X222331D01*
Y191858D02*
Y194417D01*
Y173158D02*
Y183197D01*
Y163118D02*
Y164693D01*
X188039Y163118D02*
Y164693D01*
Y173158D02*
Y183197D01*
Y163118D02*
X192173D01*
X138071Y177027D02*
X141417D01*
X132953Y183524D02*
Y188839D01*
X164449Y183524D02*
Y188839D01*
X155984Y177027D02*
X159331D01*
X99803Y164599D02*
X103740D01*
X106496Y173850D02*
Y182984D01*
X76181Y173850D02*
Y182984D01*
X78937Y164599D02*
X82874D01*
X283425Y185000D02*
X285984D01*
X254685Y151378D02*
Y155512D01*
X283425Y151378D02*
X285984D01*
X264724D02*
X274764D01*
X254685D02*
X256260D01*
X254685Y185669D02*
X256260D01*
X264724D02*
X274764D01*
X254685Y181535D02*
Y185669D01*
X63152Y68184D02*
X62168Y69168D01*
X60201D01*
X59217Y68184D01*
Y64249D01*
X60201Y63265D01*
X62168D01*
X63152Y64249D01*
X66104Y67200D02*
X68072D01*
X69056Y66216D01*
Y63265D01*
X66104D01*
X65120Y64249D01*
X66104Y65233D01*
X69056D01*
X71024Y63265D02*
X72992D01*
X72008D01*
Y69168D01*
X71024D01*
X75943Y63265D02*
X77911D01*
X76927D01*
Y67200D01*
X75943D01*
X80863Y69168D02*
Y63265D01*
X83815D01*
X84799Y64249D01*
Y65233D01*
Y66216D01*
X83815Y67200D01*
X80863D01*
X86767D02*
Y63265D01*
Y65233D01*
X87751Y66216D01*
X88735Y67200D01*
X89719D01*
X93654D02*
X95622D01*
X96606Y66216D01*
Y63265D01*
X93654D01*
X92670Y64249D01*
X93654Y65233D01*
X96606D01*
X99558Y68184D02*
Y67200D01*
X98574D01*
X100542D01*
X99558D01*
Y64249D01*
X100542Y63265D01*
X106445D02*
X104478D01*
X103494Y64249D01*
Y66216D01*
X104478Y67200D01*
X106445D01*
X107429Y66216D01*
Y65233D01*
X103494D01*
X64628Y53346D02*
X66596D01*
X65612D01*
Y59249D01*
X64628Y58265D01*
X69548Y59249D02*
Y55314D01*
X71516Y53346D01*
X73484Y55314D01*
Y59249D01*
X81355Y55314D02*
X85291D01*
X81355Y57282D02*
X85291D01*
X93162Y53346D02*
X95130D01*
X94146D01*
Y59249D01*
X93162Y58265D01*
X98082Y53346D02*
Y57282D01*
X100050Y59249D01*
X102018Y57282D01*
Y53346D01*
Y56298D01*
X98082D01*
X138284Y108648D02*
Y103728D01*
X139267Y102744D01*
X141235D01*
X142219Y103728D01*
Y108648D01*
X148123Y107664D02*
X147139Y108648D01*
X145171D01*
X144187Y107664D01*
Y106680D01*
X145171Y105696D01*
X147139D01*
X148123Y104712D01*
Y103728D01*
X147139Y102744D01*
X145171D01*
X144187Y103728D01*
X150091Y108648D02*
Y102744D01*
X153042D01*
X154026Y103728D01*
Y104712D01*
X153042Y105696D01*
X150091D01*
X153042D01*
X154026Y106680D01*
Y107664D01*
X153042Y108648D01*
X150091D01*
X165834Y106680D02*
X162882D01*
X161898Y105696D01*
Y103728D01*
X162882Y102744D01*
X165834D01*
X168785Y106680D02*
X170753D01*
X171737Y105696D01*
Y102744D01*
X168785D01*
X167801Y103728D01*
X168785Y104712D01*
X171737D01*
X173705Y108648D02*
Y102744D01*
X176657D01*
X177641Y103728D01*
Y104712D01*
Y105696D01*
X176657Y106680D01*
X173705D01*
X179609Y102744D02*
X181577D01*
X180593D01*
Y108648D01*
X179609D01*
X187480Y102744D02*
X185512D01*
X184528Y103728D01*
Y105696D01*
X185512Y106680D01*
X187480D01*
X188464Y105696D01*
Y104712D01*
X184528D01*
X135824Y96761D02*
Y92825D01*
Y94793D01*
X136808Y95777D01*
X137792Y96761D01*
X138776D01*
X144679Y92825D02*
X142711D01*
X141727Y93809D01*
Y95777D01*
X142711Y96761D01*
X144679D01*
X145663Y95777D01*
Y94793D01*
X141727D01*
X147631Y92825D02*
X150583D01*
X151567Y93809D01*
X150583Y94793D01*
X148615D01*
X147631Y95777D01*
X148615Y96761D01*
X151567D01*
X153534Y92825D02*
X155502D01*
X154518D01*
Y96761D01*
X153534D01*
X158454Y92825D02*
X161406D01*
X162390Y93809D01*
X161406Y94793D01*
X159438D01*
X158454Y95777D01*
X159438Y96761D01*
X162390D01*
X165342Y97745D02*
Y96761D01*
X164358D01*
X166326D01*
X165342D01*
Y93809D01*
X166326Y92825D01*
X170261Y96761D02*
X172229D01*
X173213Y95777D01*
Y92825D01*
X170261D01*
X169277Y93809D01*
X170261Y94793D01*
X173213D01*
X175181Y92825D02*
Y96761D01*
X178133D01*
X179117Y95777D01*
Y92825D01*
X185020Y96761D02*
X182069D01*
X181085Y95777D01*
Y93809D01*
X182069Y92825D01*
X185020D01*
X189940D02*
X187972D01*
X186988Y93809D01*
Y95777D01*
X187972Y96761D01*
X189940D01*
X190924Y95777D01*
Y94793D01*
X186988D01*
X149107Y88810D02*
Y87826D01*
X148123D01*
X150091D01*
X149107D01*
Y84874D01*
X150091Y83890D01*
X155994D02*
X154026D01*
X153042Y84874D01*
Y86842D01*
X154026Y87826D01*
X155994D01*
X156978Y86842D01*
Y85858D01*
X153042D01*
X158946Y83890D02*
X161898D01*
X162882Y84874D01*
X161898Y85858D01*
X159930D01*
X158946Y86842D01*
X159930Y87826D01*
X162882D01*
X165834Y88810D02*
Y87826D01*
X164850D01*
X166818D01*
X165834D01*
Y84874D01*
X166818Y83890D01*
X172721D02*
X170753D01*
X169769Y84874D01*
Y86842D01*
X170753Y87826D01*
X172721D01*
X173705Y86842D01*
Y85858D01*
X169769D01*
X175673Y87826D02*
Y83890D01*
Y85858D01*
X176657Y86842D01*
X177641Y87826D01*
X178625D01*
X188843Y63265D02*
Y69168D01*
X190811Y67200D01*
X192779Y69168D01*
Y63265D01*
X197698D02*
X195731D01*
X194747Y64249D01*
Y66216D01*
X195731Y67200D01*
X197698D01*
X198682Y66216D01*
Y65233D01*
X194747D01*
X201634Y67200D02*
X203602D01*
X204586Y66216D01*
Y63265D01*
X201634D01*
X200650Y64249D01*
X201634Y65233D01*
X204586D01*
X206554Y63265D02*
X209506D01*
X210490Y64249D01*
X209506Y65233D01*
X207538D01*
X206554Y66216D01*
X207538Y67200D01*
X210490D01*
X212457D02*
Y64249D01*
X213441Y63265D01*
X216393D01*
Y67200D01*
X218361D02*
Y63265D01*
Y65233D01*
X219345Y66216D01*
X220329Y67200D01*
X221313D01*
X227217Y63265D02*
X225249D01*
X224265Y64249D01*
Y66216D01*
X225249Y67200D01*
X227217D01*
X228200Y66216D01*
Y65233D01*
X224265D01*
X198190Y53346D02*
X200158D01*
X199174D01*
Y59249D01*
X198190Y58265D01*
X209014Y59249D02*
Y55314D01*
X210982Y53346D01*
X212949Y55314D01*
Y59249D01*
X214917Y53346D02*
X218853Y57282D01*
X15844Y138723D02*
X14860Y139707D01*
X12892D01*
X11908Y138723D01*
Y137739D01*
X12892Y136755D01*
X14860D01*
X15844Y135771D01*
Y134787D01*
X14860Y133803D01*
X12892D01*
X11908Y134787D01*
X17811Y137739D02*
Y134787D01*
X18795Y133803D01*
X21747D01*
Y137739D01*
X23715Y131835D02*
Y137739D01*
X26667D01*
X27651Y136755D01*
Y134787D01*
X26667Y133803D01*
X23715D01*
X29618Y131835D02*
Y137739D01*
X32570D01*
X33554Y136755D01*
Y134787D01*
X32570Y133803D01*
X29618D01*
X35522D02*
X37490D01*
X36506D01*
Y139707D01*
X35522D01*
X40442Y137739D02*
Y134787D01*
X41426Y133803D01*
X44377D01*
Y132819D01*
X43394Y131835D01*
X42410D01*
X44377Y133803D02*
Y137739D01*
X9448Y121916D02*
X11416D01*
X10432D01*
Y127820D01*
X9448Y126836D01*
X14368Y124868D02*
X18303D01*
X24207Y121916D02*
X20271D01*
X24207Y125852D01*
Y126836D01*
X23223Y127820D01*
X21255D01*
X20271Y126836D01*
X26175Y127820D02*
Y123884D01*
X28143Y121916D01*
X30110Y123884D01*
Y127820D01*
X37982Y121916D02*
X39950D01*
X38966D01*
Y127820D01*
X37982Y126836D01*
X42902Y121916D02*
Y125852D01*
X44870Y127820D01*
X46837Y125852D01*
Y121916D01*
Y124868D01*
X42902D01*
X90551Y98425D02*
X92519D01*
X91535D01*
Y104329D01*
X90551Y103345D01*
X141731Y164368D02*
X140747Y165352D01*
X138779D01*
X137795Y164368D01*
Y163384D01*
X138779Y162401D01*
X140747D01*
X141731Y161417D01*
Y160433D01*
X140747Y159449D01*
X138779D01*
X137795Y160433D01*
X143699Y165352D02*
Y159449D01*
Y162401D01*
X144683Y163384D01*
X146651D01*
X147635Y162401D01*
Y159449D01*
X150586D02*
X152554D01*
X153538Y160433D01*
Y162401D01*
X152554Y163384D01*
X150586D01*
X149602Y162401D01*
Y160433D01*
X150586Y159449D01*
X155506Y163384D02*
Y159449D01*
Y161417D01*
X156490Y162401D01*
X157474Y163384D01*
X158458D01*
X162394Y164368D02*
Y163384D01*
X161410D01*
X163377D01*
X162394D01*
Y160433D01*
X163377Y159449D01*
X188976Y143699D02*
X192912D01*
X190944D01*
Y137795D01*
X194880Y141731D02*
Y138779D01*
X195864Y137795D01*
X198816D01*
Y136811D01*
X197832Y135827D01*
X196848D01*
X198816Y137795D02*
Y141731D01*
X200784Y135827D02*
Y141731D01*
X203735D01*
X204719Y140747D01*
Y138779D01*
X203735Y137795D01*
X200784D01*
X209639D02*
X207671D01*
X206687Y138779D01*
Y140747D01*
X207671Y141731D01*
X209639D01*
X210623Y140747D01*
Y139763D01*
X206687D01*
X222430Y142715D02*
X221446Y143699D01*
X219478D01*
X218494Y142715D01*
Y138779D01*
X219478Y137795D01*
X221446D01*
X222430Y138779D01*
X137795Y137795D02*
Y143699D01*
X139763Y141731D01*
X141731Y143699D01*
Y137795D01*
X143699D02*
X145667D01*
X144683D01*
Y141731D01*
X143699D01*
X152554D02*
X149602D01*
X148618Y140747D01*
Y138779D01*
X149602Y137795D01*
X152554D01*
X154522Y141731D02*
Y137795D01*
Y139763D01*
X155506Y140747D01*
X156490Y141731D01*
X157474D01*
X161410Y137795D02*
X163377D01*
X164362Y138779D01*
Y140747D01*
X163377Y141731D01*
X161410D01*
X160426Y140747D01*
Y138779D01*
X161410Y137795D01*
X82677Y137795D02*
Y143699D01*
X84645Y141731D01*
X86613Y143699D01*
Y137795D01*
X88581D02*
X90549D01*
X89565D01*
Y141731D01*
X88581D01*
X93500Y137795D02*
Y141731D01*
X96452D01*
X97436Y140747D01*
Y137795D01*
X99404D02*
X101372D01*
X100388D01*
Y141731D01*
X99404D01*
D38*
X269685Y138451D02*
X270997Y135827D01*
X272309Y138451D01*
X273621Y135827D02*
X274933D01*
X274277D01*
Y139762D01*
X273621Y139107D01*
X276901Y135827D02*
Y136483D01*
X277556D01*
Y135827D01*
X276901D01*
X280180Y139107D02*
X280836Y139762D01*
X282148D01*
X282804Y139107D01*
Y136483D01*
X282148Y135827D01*
X280836D01*
X280180Y136483D01*
Y139107D01*
X87926Y120735D02*
X88582D01*
X89238Y121391D01*
Y124671D01*
X87270D01*
X86614Y124015D01*
Y122703D01*
X87270Y122047D01*
X89238D01*
X90550D02*
X91862D01*
X91206D01*
Y124671D01*
X90550D01*
X94486Y125327D02*
Y124671D01*
X93830D01*
X95142D01*
X94486D01*
Y122703D01*
X95142Y122047D01*
X97110Y125983D02*
Y122047D01*
Y124015D01*
X97765Y124671D01*
X99077D01*
X99733Y124015D01*
Y122047D01*
X101045Y124671D02*
Y122703D01*
X101701Y122047D01*
X103669D01*
Y124671D01*
X104981Y125983D02*
Y122047D01*
X106949D01*
X107605Y122703D01*
Y123359D01*
Y124015D01*
X106949Y124671D01*
X104981D01*
X108917Y122047D02*
Y122703D01*
X109573D01*
Y122047D01*
X108917D01*
X114820Y124671D02*
X112852D01*
X112197Y124015D01*
Y122703D01*
X112852Y122047D01*
X114820D01*
X116788D02*
X118100D01*
X118756Y122703D01*
Y124015D01*
X118100Y124671D01*
X116788D01*
X116132Y124015D01*
Y122703D01*
X116788Y122047D01*
X120068D02*
Y124671D01*
X120724D01*
X121380Y124015D01*
Y122047D01*
Y124015D01*
X122036Y124671D01*
X122692Y124015D01*
Y122047D01*
X124004D02*
X126628Y124671D01*
X128595D02*
X129907D01*
X130563Y124015D01*
Y122047D01*
X128595D01*
X127939Y122703D01*
X128595Y123359D01*
X130563D01*
X131875Y124671D02*
X133187Y122047D01*
X134499Y124671D01*
X135811Y122047D02*
X137123D01*
X136467D01*
Y124671D01*
X135811D01*
X139747D02*
X141059D01*
X141715Y124015D01*
Y122047D01*
X139747D01*
X139091Y122703D01*
X139747Y123359D01*
X141715D01*
X143026Y122047D02*
Y124671D01*
X144994D01*
X145650Y124015D01*
Y122047D01*
X149586D02*
X146962D01*
X149586Y124671D01*
Y125327D01*
X148930Y125983D01*
X147618D01*
X146962Y125327D01*
X150898Y122047D02*
X153522Y124671D01*
X154834D02*
Y122703D01*
X155490Y122047D01*
X157457D01*
Y124671D01*
X158769Y122047D02*
X160737D01*
X161393Y122703D01*
X160737Y123359D01*
X159425D01*
X158769Y124015D01*
X159425Y124671D01*
X161393D01*
X162705Y125983D02*
Y122047D01*
X164673D01*
X165329Y122703D01*
Y123359D01*
Y124015D01*
X164673Y124671D01*
X162705D01*
X166641Y124015D02*
X169265D01*
X173200Y124671D02*
X171233D01*
X170577Y124015D01*
Y122703D01*
X171233Y122047D01*
X173200D01*
X175168Y124671D02*
X176480D01*
X177136Y124015D01*
Y122047D01*
X175168D01*
X174512Y122703D01*
X175168Y123359D01*
X177136D01*
X178448Y125983D02*
Y122047D01*
X180416D01*
X181072Y122703D01*
Y123359D01*
Y124015D01*
X180416Y124671D01*
X178448D01*
X182384Y122047D02*
X183696D01*
X183040D01*
Y125983D01*
X182384D01*
X187631Y122047D02*
X186320D01*
X185664Y122703D01*
Y124015D01*
X186320Y124671D01*
X187631D01*
X188287Y124015D01*
Y123359D01*
X185664D01*
X189599Y124015D02*
X192223D01*
X194191Y125327D02*
Y124671D01*
X193535D01*
X194847D01*
X194191D01*
Y122703D01*
X194847Y122047D01*
X198783D02*
X197471D01*
X196815Y122703D01*
Y124015D01*
X197471Y124671D01*
X198783D01*
X199439Y124015D01*
Y123359D01*
X196815D01*
X200751Y122047D02*
X202718D01*
X203374Y122703D01*
X202718Y123359D01*
X201407D01*
X200751Y124015D01*
X201407Y124671D01*
X203374D01*
X205342Y125327D02*
Y124671D01*
X204686D01*
X205998D01*
X205342D01*
Y122703D01*
X205998Y122047D01*
X209934D02*
X208622D01*
X207966Y122703D01*
Y124015D01*
X208622Y124671D01*
X209934D01*
X210590Y124015D01*
Y123359D01*
X207966D01*
X211902Y124671D02*
Y122047D01*
Y123359D01*
X212558Y124015D01*
X213214Y124671D01*
X213870D01*
M02*
