M48
;Layer_Color=9474304
;FILE_FORMAT=2:5
INCH,LZ
;TYPE=PLATED
T1F00S00C0.01575
T5F00S00C0.03622
T6F00S00C0.09055
T7F00S00C0.23622
;TYPE=NON_PLATED
T8F00S00C0.03150
%
T01
X0194102Y0164378
X0197252
X0200402
X0203551
X0206701
X020985
X0213
X021615
X0255945Y0163858
Y0160709
Y0157559
X0258701Y0159134
Y0162284
Y0165433
X0255945Y0167008
Y0170158
Y0173307
Y0176457
Y0179606
X0258701Y0178032
Y0174882
Y0171732
X0214575Y0167134
X0211425
X0208276
X0201976
X0198827
X0195677
T05
X0241429Y00855
Y0095342
Y0103217
Y0113059
T06
X0252098Y0073413
Y0125146
T07
X0181102Y0027559
X0255906
X0122047
X0047244
X0027559Y009252
X0027559Y0167323
T08
X0138858Y0182736
X0158543
M30
