G04 Layer_Color=8388736*
%FSLAX25Y25*%
%MOIN*%
G70*
G01*
G75*
%ADD39R,0.06509X0.14383*%
%ADD40R,0.01981X0.05524*%
%ADD41R,0.01587X0.04737*%
%ADD42R,0.02572X0.05918*%
%ADD43R,0.02768X0.09658*%
%ADD44R,0.08674X0.10642*%
%ADD45R,0.05524X0.01981*%
%ADD46R,0.04737X0.01587*%
%ADD47R,0.40170X0.22454*%
%ADD48R,0.40170X0.22454*%
%ADD49R,0.40170X0.22453*%
%ADD50R,0.22454X0.40170*%
%ADD51C,0.06391*%
%ADD52C,0.14383*%
%ADD53C,0.40170*%
%ADD54C,0.03359*%
%ADD55O,0.04737X0.07099*%
%ADD56C,0.03950*%
%ADD57O,0.05328X0.07887*%
%ADD58O,0.06509X0.08674*%
%ADD59O,0.07099X0.04737*%
D39*
X107150Y84374D02*
D03*
X82740D02*
D03*
D40*
X194299Y159457D02*
D03*
X196268D02*
D03*
X198236D02*
D03*
X200205D02*
D03*
X202173D02*
D03*
X204142D02*
D03*
X206110D02*
D03*
X208079D02*
D03*
X210047D02*
D03*
X212016D02*
D03*
X213984D02*
D03*
X215953D02*
D03*
D41*
X205126Y189693D02*
D03*
Y177488D02*
D03*
D42*
X146142Y178602D02*
D03*
X148701D02*
D03*
X151260D02*
D03*
X143583D02*
D03*
X153819D02*
D03*
D43*
X88189Y167098D02*
D03*
X91339D02*
D03*
X94488D02*
D03*
X85039D02*
D03*
X97638D02*
D03*
D44*
X108858Y167591D02*
D03*
Y189244D02*
D03*
X73819D02*
D03*
Y167591D02*
D03*
D45*
X251024Y179409D02*
D03*
Y177441D02*
D03*
Y175472D02*
D03*
Y173504D02*
D03*
Y171535D02*
D03*
Y169567D02*
D03*
Y167598D02*
D03*
Y165630D02*
D03*
Y163661D02*
D03*
Y161693D02*
D03*
Y159724D02*
D03*
Y157756D02*
D03*
D46*
X281260Y168583D02*
D03*
X269055D02*
D03*
D47*
X47244Y16732D02*
D03*
D48*
X122047D02*
D03*
X255906D02*
D03*
D49*
X181102Y16732D02*
D03*
D50*
X16732Y92520D02*
D03*
Y167323D02*
D03*
D51*
X241429Y103217D02*
D03*
Y95342D02*
D03*
Y113059D02*
D03*
Y85500D02*
D03*
D52*
X252098Y73413D02*
D03*
Y125146D02*
D03*
D53*
X47244Y27559D02*
D03*
X255906D02*
D03*
X181102D02*
D03*
X122047D02*
D03*
X27559Y92520D02*
D03*
X27559Y167323D02*
D03*
D54*
X206701Y164378D02*
D03*
X203551D02*
D03*
X209850D02*
D03*
X200402D02*
D03*
X213000D02*
D03*
X197252D02*
D03*
X216150D02*
D03*
X194102D02*
D03*
X208276Y167134D02*
D03*
X201976D02*
D03*
X211425D02*
D03*
X198827D02*
D03*
X214575D02*
D03*
X195677D02*
D03*
X255945Y167008D02*
D03*
Y170158D02*
D03*
Y163858D02*
D03*
Y173307D02*
D03*
Y160709D02*
D03*
Y176457D02*
D03*
Y157559D02*
D03*
Y179606D02*
D03*
X258701Y165433D02*
D03*
Y171732D02*
D03*
Y162284D02*
D03*
Y174882D02*
D03*
Y159134D02*
D03*
Y178032D02*
D03*
D55*
X188315Y168905D02*
D03*
X221937D02*
D03*
X188315Y187528D02*
D03*
X221937D02*
D03*
D56*
X138858Y182736D02*
D03*
X158543D02*
D03*
D57*
X133445Y193563D02*
D03*
X163957D02*
D03*
D58*
X134035Y178602D02*
D03*
X163366D02*
D03*
D59*
X260472Y185394D02*
D03*
Y151772D02*
D03*
X279095Y185394D02*
D03*
Y151772D02*
D03*
M02*
