G04 Layer_Physical_Order=1*
G04 Layer_Color=255*
%FSLAX25Y25*%
%MOIN*%
G70*
G01*
G75*
%ADD10R,0.05709X0.13583*%
%ADD11R,0.01181X0.04724*%
%ADD12R,0.00787X0.03937*%
%ADD13R,0.01772X0.05118*%
%ADD14R,0.01968X0.08858*%
%ADD15R,0.07874X0.09842*%
%ADD16R,0.04724X0.01181*%
%ADD17R,0.03937X0.00787*%
%ADD18C,0.01000*%
%ADD19C,0.01968*%
%ADD20C,0.02000*%
%ADD21C,0.03937*%
%ADD22R,0.01968X0.10551*%
%ADD23R,0.01968X0.24606*%
%ADD24R,0.39370X0.21654*%
%ADD25R,0.39370X0.21654*%
%ADD26R,0.39370X0.21654*%
%ADD27R,0.21654X0.39370*%
%ADD28C,0.05591*%
%ADD29C,0.13583*%
%ADD30C,0.39370*%
%ADD31C,0.02559*%
%ADD32O,0.03937X0.06299*%
%ADD33C,0.03150*%
%ADD34O,0.04528X0.07087*%
%ADD35O,0.05709X0.07874*%
%ADD36O,0.06299X0.03937*%
G36*
X216535Y154528D02*
X215551Y153543D01*
X194882D01*
X193898Y154528D01*
Y155512D01*
X216535D01*
Y154528D01*
D02*
G37*
G36*
X60303Y96720D02*
X60633Y96499D01*
X61024Y96421D01*
X84646D01*
Y92185D01*
X83740D01*
Y84374D01*
X82740D01*
Y83374D01*
X78866D01*
Y77583D01*
X78944Y77192D01*
X79031Y77062D01*
X61024Y59055D01*
X5944D01*
Y71815D01*
X26559D01*
Y92520D01*
Y113224D01*
X5944D01*
Y117091D01*
X39932D01*
X60303Y96720D01*
D02*
G37*
G36*
X281444Y198613D02*
X282686Y198280D01*
X283873Y197788D01*
X284986Y197146D01*
X286006Y196363D01*
X286914Y195455D01*
X287697Y194435D01*
X288339Y193322D01*
X288831Y192134D01*
X289164Y190893D01*
X289332Y189619D01*
Y188976D01*
Y156496D01*
X265748D01*
Y167492D01*
X266248Y167644D01*
X266366Y167468D01*
X266696Y167247D01*
X267087Y167169D01*
X271024D01*
X271414Y167247D01*
X271745Y167468D01*
X271966Y167799D01*
X272043Y168189D01*
Y168976D01*
X271966Y169367D01*
X271745Y169697D01*
X271414Y169918D01*
X271024Y169996D01*
X267087D01*
X266696Y169918D01*
X266366Y169697D01*
X266248Y169521D01*
X265748Y169673D01*
Y183071D01*
X264243D01*
X263997Y183571D01*
X264247Y183897D01*
X264546Y184619D01*
X264648Y185394D01*
X264546Y186169D01*
X264247Y186891D01*
X263771Y187511D01*
X263151Y187987D01*
X262428Y188286D01*
X261653Y188388D01*
X259291D01*
X258516Y188286D01*
X257794Y187987D01*
X257174Y187511D01*
X256698Y186891D01*
X256399Y186169D01*
X256297Y185394D01*
X256399Y184619D01*
X256698Y183897D01*
X256948Y183571D01*
X256702Y183071D01*
X247047D01*
Y175197D01*
X246241D01*
X246063Y175232D01*
X244094D01*
X243917Y175197D01*
X239173D01*
X230315Y166339D01*
Y148622D01*
X247229Y131708D01*
X247204Y131209D01*
X246562Y130682D01*
X245589Y129495D01*
X244865Y128142D01*
X244420Y126673D01*
X244269Y125146D01*
X244420Y123618D01*
X244865Y122150D01*
X245589Y120796D01*
X246562Y119610D01*
X247749Y118636D01*
X249102Y117913D01*
X250571Y117467D01*
X251969Y117329D01*
Y111221D01*
X245226Y111221D01*
X244948Y111636D01*
X245123Y112059D01*
X242429D01*
Y109365D01*
X243343Y109744D01*
X243490Y109856D01*
X246133Y107213D01*
X246063Y97441D01*
X244603D01*
X244136Y98049D01*
X243343Y98658D01*
X242466Y99021D01*
X242420Y99149D01*
Y99410D01*
X242466Y99538D01*
X243343Y99901D01*
X244136Y100510D01*
X244744Y101303D01*
X245127Y102226D01*
X245257Y103217D01*
X245127Y104207D01*
X244744Y105131D01*
X244136Y105923D01*
X243343Y106532D01*
X242420Y106914D01*
X241429Y107045D01*
X240438Y106914D01*
X239515Y106532D01*
X238722Y105923D01*
X238114Y105131D01*
X237732Y104207D01*
X237601Y103217D01*
X237732Y102226D01*
X238114Y101303D01*
X238722Y100510D01*
X239515Y99901D01*
X240392Y99538D01*
X240438Y99410D01*
Y99149D01*
X240392Y99021D01*
X239515Y98658D01*
X238722Y98049D01*
X238256Y97441D01*
X61024D01*
X40354Y118110D01*
X5944D01*
Y146618D01*
X26559D01*
Y167323D01*
Y188028D01*
X5944D01*
Y188976D01*
X5944Y189619D01*
X6112Y190893D01*
X6444Y192134D01*
X6936Y193322D01*
X7579Y194435D01*
X8361Y195455D01*
X9270Y196363D01*
X10289Y197146D01*
X11402Y197788D01*
X12590Y198280D01*
X13831Y198613D01*
X15105Y198780D01*
X214154D01*
X214154Y169374D01*
X213685Y169281D01*
X213000Y168823D01*
X212315Y169281D01*
X211425Y169458D01*
X210536Y169281D01*
X209850Y168823D01*
X209165Y169281D01*
X208276Y169458D01*
X207386Y169281D01*
X206632Y168777D01*
X206128Y168023D01*
X205951Y167134D01*
X206063Y166575D01*
X205811Y166525D01*
X205126Y166067D01*
X204441Y166525D01*
X204189Y166575D01*
X204301Y167134D01*
X204124Y168023D01*
X203620Y168777D01*
X202866Y169281D01*
X201976Y169458D01*
X201087Y169281D01*
X200402Y168823D01*
X199716Y169281D01*
X198827Y169458D01*
X197937Y169281D01*
X197252Y168823D01*
X196567Y169281D01*
X195677Y169458D01*
X194788Y169281D01*
X194034Y168777D01*
X193530Y168023D01*
X193353Y167134D01*
X193464Y166575D01*
X193213Y166525D01*
X192459Y166021D01*
X191955Y165267D01*
X191778Y164378D01*
X191955Y163488D01*
X192459Y162734D01*
X192770Y162527D01*
Y162214D01*
X192767Y162209D01*
X192689Y161819D01*
Y157095D01*
X192767Y156704D01*
X192770Y156700D01*
Y155110D01*
X192878Y154566D01*
Y154528D01*
X192956Y154137D01*
X193177Y153807D01*
X194161Y152822D01*
X194492Y152601D01*
X194882Y152524D01*
X214154D01*
Y139193D01*
X238227Y115120D01*
X238114Y114973D01*
X237735Y114059D01*
X240429D01*
Y116753D01*
X239515Y116374D01*
X239079Y116039D01*
X215354Y139764D01*
Y152524D01*
X215551D01*
X215941Y152601D01*
X216272Y152822D01*
X217256Y153807D01*
X217477Y154137D01*
X217555Y154528D01*
Y155512D01*
X217482Y155878D01*
Y156700D01*
X217485Y156704D01*
X217563Y157095D01*
Y161819D01*
X217485Y162209D01*
X217482Y162214D01*
Y162527D01*
X217793Y162734D01*
X218297Y163488D01*
X218474Y164378D01*
X218297Y165267D01*
X217793Y166021D01*
X217039Y166525D01*
X216788Y166575D01*
X216899Y167134D01*
X216722Y168023D01*
X216218Y168777D01*
X215464Y169281D01*
X215354Y169303D01*
X215354Y198780D01*
X280170D01*
X281444Y198613D01*
D02*
G37*
G36*
X242913Y155512D02*
X254724Y143701D01*
X267717Y143701D01*
X280512Y130905D01*
X280512Y82677D01*
X246063Y82677D01*
X244864Y83876D01*
X245123Y84500D01*
X242429D01*
Y81806D01*
X242831Y81972D01*
X244094Y80709D01*
X222441Y59055D01*
X127953D01*
X110738Y76269D01*
X110725Y76862D01*
X110946Y77192D01*
X111023Y77583D01*
Y83374D01*
X107150D01*
Y84374D01*
X106150D01*
Y92185D01*
X104331D01*
Y96421D01*
X237249D01*
X237677Y95921D01*
X237601Y95342D01*
X237732Y94352D01*
X238114Y93428D01*
X238189Y93331D01*
Y87512D01*
X238114Y87414D01*
X237735Y86500D01*
X240429D01*
Y89402D01*
X240179Y89581D01*
X240214Y91241D01*
X240722Y91608D01*
X241429Y91514D01*
X242420Y91645D01*
X243343Y92027D01*
X244136Y92636D01*
X244744Y93428D01*
X245127Y94352D01*
X245257Y95342D01*
X245181Y95921D01*
X245609Y96421D01*
X246063D01*
X246255Y96460D01*
X246446Y96496D01*
X246449Y96498D01*
X246453Y96499D01*
X246616Y96607D01*
X246779Y96715D01*
X246781Y96718D01*
X246784Y96720D01*
X246893Y96883D01*
X247002Y97044D01*
X247003Y97048D01*
X247005Y97051D01*
X247043Y97243D01*
X247082Y97434D01*
X247153Y107206D01*
X247152Y107209D01*
X247153Y107213D01*
X247115Y107405D01*
X247078Y107596D01*
X247076Y107599D01*
X247076Y107603D01*
X246967Y107765D01*
X246860Y107929D01*
X246856Y107931D01*
X246854Y107934D01*
X245068Y109721D01*
X245070Y109736D01*
X245171Y110037D01*
X245295Y110201D01*
X251969Y110201D01*
X252359Y110278D01*
X252690Y110500D01*
X252910Y110830D01*
X252988Y111221D01*
Y117329D01*
X253048Y117410D01*
X253626Y117467D01*
X255095Y117913D01*
X256448Y118636D01*
X257634Y119610D01*
X258608Y120796D01*
X259331Y122150D01*
X259777Y123618D01*
X259928Y125146D01*
X259777Y126673D01*
X259331Y128142D01*
X258608Y129495D01*
X257634Y130682D01*
X256448Y131655D01*
X255095Y132379D01*
X253626Y132824D01*
X252098Y132975D01*
X250571Y132824D01*
X249102Y132379D01*
X248661Y132143D01*
X248171Y132098D01*
X248074Y132243D01*
X247985Y132393D01*
X247964Y132408D01*
X247950Y132429D01*
X231334Y149044D01*
Y165916D01*
X239596Y174177D01*
X242913D01*
X242913Y155512D01*
D02*
G37*
G36*
X245342Y81956D02*
X245673Y81735D01*
X246063Y81658D01*
X251212D01*
X251237Y81158D01*
X250571Y81092D01*
X249102Y80647D01*
X247749Y79923D01*
X246562Y78949D01*
X245589Y77763D01*
X244865Y76409D01*
X244420Y74941D01*
X244269Y73413D01*
X244420Y71886D01*
X244865Y70417D01*
X245589Y69064D01*
X246562Y67877D01*
X247749Y66904D01*
X249102Y66180D01*
X250571Y65735D01*
X252098Y65584D01*
X253626Y65735D01*
X255095Y66180D01*
X256448Y66904D01*
X257634Y67877D01*
X258608Y69064D01*
X259331Y70417D01*
X259777Y71886D01*
X259928Y73413D01*
X259777Y74941D01*
X259331Y76409D01*
X258608Y77763D01*
X257634Y78949D01*
X256448Y79923D01*
X255095Y80647D01*
X253626Y81092D01*
X252960Y81158D01*
X252984Y81658D01*
X280457Y81658D01*
Y80562D01*
X262942Y63047D01*
X234252D01*
X233478Y62893D01*
X232821Y62454D01*
X201860Y31493D01*
X201381Y31638D01*
X201126Y32924D01*
X200254Y35492D01*
X199055Y37924D01*
X197548Y40178D01*
X195760Y42217D01*
X193722Y44005D01*
X191467Y45511D01*
X189035Y46711D01*
X186468Y47582D01*
X183808Y48111D01*
X181102Y48289D01*
X178397Y48111D01*
X175737Y47582D01*
X173170Y46711D01*
X170738Y45511D01*
X168483Y44005D01*
X166445Y42217D01*
X164657Y40178D01*
X163150Y37924D01*
X161951Y35492D01*
X161079Y32924D01*
X160550Y30265D01*
X160373Y27559D01*
X160398Y27181D01*
Y5944D01*
X142752D01*
Y27181D01*
X142777Y27559D01*
X142599Y30265D01*
X142070Y32924D01*
X141199Y35492D01*
X139999Y37924D01*
X138493Y40178D01*
X136705Y42217D01*
X134667Y44005D01*
X132412Y45511D01*
X129980Y46711D01*
X127412Y47582D01*
X124753Y48111D01*
X122047Y48289D01*
X119342Y48111D01*
X116682Y47582D01*
X114114Y46711D01*
X113791Y46551D01*
X109173Y51169D01*
Y76563D01*
X109712D01*
X109719Y76246D01*
X109760Y76063D01*
X109797Y75879D01*
X109803Y75869D01*
X109806Y75858D01*
X109913Y75704D01*
X110018Y75548D01*
X127232Y58334D01*
X127563Y58113D01*
X127953Y58035D01*
X222441D01*
X222831Y58113D01*
X223162Y58334D01*
X244815Y79988D01*
X245037Y80318D01*
X245114Y80709D01*
X245037Y81099D01*
X244815Y81430D01*
X244050Y82195D01*
X244126Y82683D01*
X244520Y82778D01*
X245342Y81956D01*
D02*
G37*
G36*
X289332Y15748D02*
Y15105D01*
X289164Y13831D01*
X288831Y12590D01*
X288339Y11402D01*
X287697Y10289D01*
X286914Y9270D01*
X286006Y8361D01*
X284986Y7579D01*
X283873Y6936D01*
X282686Y6444D01*
X281444Y6112D01*
X280170Y5944D01*
X279528Y5944D01*
X276610D01*
Y27181D01*
X276635Y27559D01*
X276458Y30265D01*
X275929Y32924D01*
X275057Y35492D01*
X273858Y37924D01*
X272351Y40178D01*
X271900Y40693D01*
X287848Y56640D01*
X288286Y57297D01*
X288440Y58071D01*
Y133591D01*
X288286Y134365D01*
X287848Y135021D01*
X267854Y155015D01*
X268046Y155476D01*
X289332D01*
Y15748D01*
D02*
G37*
G36*
X103311Y92185D02*
X103389Y91795D01*
X103451Y91702D01*
X103353Y91556D01*
X103276Y91165D01*
Y77583D01*
X103353Y77192D01*
X103574Y76862D01*
X103905Y76641D01*
X104295Y76563D01*
X105127D01*
Y50331D01*
X105280Y49556D01*
X105719Y48900D01*
X109861Y44759D01*
X109811Y44261D01*
X109428Y44005D01*
X107389Y42217D01*
X105602Y40178D01*
X104095Y37924D01*
X102896Y35492D01*
X102024Y32924D01*
X101495Y30265D01*
X101318Y27559D01*
X101343Y27180D01*
Y5944D01*
X67949D01*
Y27181D01*
X67974Y27559D01*
X67796Y30265D01*
X67267Y32924D01*
X66396Y35492D01*
X66236Y35816D01*
X84171Y53750D01*
X84609Y54407D01*
X84763Y55181D01*
Y76563D01*
X85594D01*
X85985Y76641D01*
X86315Y76862D01*
X86537Y77192D01*
X86614Y77583D01*
Y91165D01*
X86537Y91556D01*
X86315Y91886D01*
X85985Y92107D01*
X85663Y92171D01*
X85665Y92185D01*
Y96421D01*
X103311D01*
Y92185D01*
D02*
G37*
G36*
X283966Y78274D02*
X284394Y78117D01*
Y58909D01*
X269039Y43554D01*
X268525Y44005D01*
X266270Y45511D01*
X263838Y46711D01*
X261271Y47582D01*
X258611Y48111D01*
X255906Y48289D01*
X253200Y48111D01*
X250540Y47582D01*
X247973Y46711D01*
X245541Y45511D01*
X243286Y44005D01*
X241248Y42217D01*
X239460Y40178D01*
X237953Y37924D01*
X236754Y35492D01*
X235882Y32924D01*
X235353Y30265D01*
X235176Y27559D01*
X235201Y27181D01*
Y5944D01*
X201807D01*
Y25854D01*
X202218Y26129D01*
X235090Y59000D01*
X263779D01*
X264554Y59154D01*
X265210Y59593D01*
X283894Y78277D01*
X283966Y78274D01*
D02*
G37*
G36*
X80717Y56019D02*
X64444Y39746D01*
X63946Y39795D01*
X63690Y40178D01*
X61902Y42217D01*
X59863Y44005D01*
X57609Y45511D01*
X55177Y46711D01*
X52609Y47582D01*
X49950Y48111D01*
X47244Y48289D01*
X44538Y48111D01*
X41879Y47582D01*
X39311Y46711D01*
X36879Y45511D01*
X34625Y44005D01*
X32586Y42217D01*
X30798Y40178D01*
X29292Y37924D01*
X28093Y35492D01*
X27221Y32924D01*
X26692Y30265D01*
X26515Y27559D01*
X26539Y27181D01*
Y5944D01*
X15105D01*
X13831Y6112D01*
X12590Y6444D01*
X11403Y6936D01*
X10289Y7579D01*
X9270Y8361D01*
X8361Y9270D01*
X7579Y10289D01*
X6936Y11402D01*
X6444Y12590D01*
X6112Y13831D01*
X5944Y15105D01*
Y15748D01*
Y58035D01*
X61024D01*
X61414Y58113D01*
X61745Y58334D01*
X79752Y76341D01*
X79808Y76425D01*
X79879Y76496D01*
X79906Y76563D01*
X80717D01*
Y56019D01*
D02*
G37*
%LPC*%
G36*
X81740Y92185D02*
X79886D01*
X79496Y92107D01*
X79165Y91886D01*
X78944Y91556D01*
X78866Y91165D01*
Y85374D01*
X81740D01*
Y92185D01*
D02*
G37*
G36*
X48223Y91520D02*
X28559D01*
Y71856D01*
X30265Y71968D01*
X32924Y72497D01*
X35492Y73368D01*
X37924Y74568D01*
X40178Y76074D01*
X42217Y77862D01*
X44005Y79900D01*
X45511Y82155D01*
X46711Y84587D01*
X47582Y87155D01*
X48111Y89814D01*
X48223Y91520D01*
D02*
G37*
G36*
X28559Y113184D02*
Y93520D01*
X48223D01*
X48111Y95225D01*
X47582Y97885D01*
X46711Y100452D01*
X45511Y102884D01*
X44005Y105139D01*
X42217Y107178D01*
X40178Y108965D01*
X37924Y110472D01*
X35492Y111671D01*
X32924Y112543D01*
X30265Y113072D01*
X28559Y113184D01*
D02*
G37*
G36*
X240429Y112059D02*
X237735D01*
X238114Y111145D01*
X238722Y110352D01*
X239515Y109744D01*
X240429Y109365D01*
Y112059D01*
D02*
G37*
G36*
X48223Y166323D02*
X28559D01*
Y146659D01*
X30265Y146771D01*
X32924Y147300D01*
X35492Y148171D01*
X37924Y149371D01*
X40178Y150877D01*
X42217Y152665D01*
X44005Y154704D01*
X45511Y156958D01*
X46711Y159390D01*
X47582Y161958D01*
X48111Y164617D01*
X48223Y166323D01*
D02*
G37*
G36*
X242429Y116753D02*
Y114059D01*
X245123D01*
X244744Y114973D01*
X244136Y115766D01*
X243343Y116374D01*
X242429Y116753D01*
D02*
G37*
G36*
X77756Y173531D02*
X69882D01*
X69492Y173454D01*
X69161Y173233D01*
X68940Y172902D01*
X68862Y172512D01*
Y162669D01*
X68940Y162279D01*
X69161Y161948D01*
X69492Y161727D01*
X69882Y161650D01*
X77756D01*
X78146Y161727D01*
X78477Y161948D01*
X78698Y162279D01*
X78776Y162669D01*
Y172512D01*
X78698Y172902D01*
X78477Y173233D01*
X78146Y173454D01*
X77756Y173531D01*
D02*
G37*
G36*
Y195185D02*
X69882D01*
X69492Y195107D01*
X69161Y194886D01*
X68940Y194555D01*
X68862Y194165D01*
Y184323D01*
X68940Y183933D01*
X69161Y183602D01*
X69492Y183381D01*
X69882Y183303D01*
X77756D01*
X78146Y183381D01*
X78477Y183602D01*
X78698Y183933D01*
X78776Y184323D01*
Y194165D01*
X78698Y194555D01*
X78477Y194886D01*
X78146Y195107D01*
X77756Y195185D01*
D02*
G37*
G36*
X112795D02*
X104921D01*
X104531Y195107D01*
X104200Y194886D01*
X103979Y194555D01*
X103902Y194165D01*
Y184323D01*
X103979Y183933D01*
X104200Y183602D01*
X104531Y183381D01*
X104921Y183303D01*
X112795D01*
X113186Y183381D01*
X113516Y183602D01*
X113737Y183933D01*
X113815Y184323D01*
Y194165D01*
X113737Y194555D01*
X113516Y194886D01*
X113186Y195107D01*
X112795Y195185D01*
D02*
G37*
G36*
X280276Y188388D02*
X277913D01*
X277138Y188286D01*
X276416Y187987D01*
X275796Y187511D01*
X275320Y186891D01*
X275021Y186169D01*
X274919Y185394D01*
X275021Y184619D01*
X275320Y183897D01*
X275796Y183276D01*
X276416Y182801D01*
X277138Y182502D01*
X277913Y182400D01*
X280276D01*
X281050Y182502D01*
X281773Y182801D01*
X282393Y183276D01*
X282869Y183897D01*
X283168Y184619D01*
X283270Y185394D01*
X283168Y186169D01*
X282869Y186891D01*
X282393Y187511D01*
X281773Y187987D01*
X281050Y188286D01*
X280276Y188388D01*
D02*
G37*
G36*
X138858Y185361D02*
X138760Y185342D01*
X138659D01*
X138045Y185220D01*
X137677Y185067D01*
X137156Y184719D01*
X137156Y184719D01*
X136875Y184438D01*
X136875Y184438D01*
X136527Y183917D01*
X136375Y183550D01*
X136345Y183401D01*
X136260Y183320D01*
X135782Y183133D01*
X135042Y183440D01*
X134035Y183573D01*
X133029Y183440D01*
X132092Y183052D01*
X131287Y182434D01*
X130669Y181629D01*
X130280Y180691D01*
X130148Y179685D01*
Y177520D01*
X130280Y176514D01*
X130669Y175576D01*
X131287Y174771D01*
X132092Y174153D01*
X133029Y173765D01*
X134035Y173632D01*
X135042Y173765D01*
X135979Y174153D01*
X136784Y174771D01*
X137402Y175576D01*
X137791Y176514D01*
X137923Y177520D01*
Y179685D01*
X137909Y179788D01*
X138361Y180190D01*
X138659Y180131D01*
X138760D01*
X138858Y180111D01*
X138957Y180131D01*
X139057D01*
X139672Y180253D01*
X140039Y180405D01*
X140560Y180753D01*
X140560Y180753D01*
X140841Y181034D01*
X140841Y181034D01*
X141190Y181555D01*
X141342Y181923D01*
X141464Y182537D01*
Y182935D01*
X141342Y183550D01*
X141190Y183917D01*
X140841Y184438D01*
X140841Y184438D01*
X140560Y184719D01*
X140560Y184719D01*
X140039Y185067D01*
X139672Y185220D01*
X139057Y185342D01*
X138957D01*
X138858Y185361D01*
D02*
G37*
G36*
X188315Y191703D02*
X187540Y191601D01*
X186818Y191302D01*
X186198Y190826D01*
X185722Y190206D01*
X185423Y189484D01*
X185321Y188709D01*
Y186346D01*
X185423Y185572D01*
X185722Y184849D01*
X186198Y184229D01*
X186818Y183754D01*
X187540Y183454D01*
X188315Y183352D01*
X189090Y183454D01*
X189812Y183754D01*
X190432Y184229D01*
X190908Y184849D01*
X191207Y185572D01*
X191309Y186346D01*
Y188709D01*
X191207Y189484D01*
X190908Y190206D01*
X190432Y190826D01*
X189812Y191302D01*
X189090Y191601D01*
X188315Y191703D01*
D02*
G37*
G36*
X133445Y198134D02*
X132593Y198022D01*
X131799Y197693D01*
X131117Y197170D01*
X130594Y196488D01*
X130265Y195694D01*
X130153Y194843D01*
Y192283D01*
X130265Y191431D01*
X130594Y190638D01*
X131117Y189956D01*
X131799Y189433D01*
X132593Y189104D01*
X133445Y188991D01*
X134297Y189104D01*
X135091Y189433D01*
X135773Y189956D01*
X136296Y190638D01*
X136625Y191431D01*
X136737Y192283D01*
Y194843D01*
X136625Y195694D01*
X136296Y196488D01*
X135773Y197170D01*
X135091Y197693D01*
X134297Y198022D01*
X133445Y198134D01*
D02*
G37*
G36*
X163957D02*
X163105Y198022D01*
X162311Y197693D01*
X161629Y197170D01*
X161106Y196488D01*
X160777Y195694D01*
X160665Y194843D01*
Y192283D01*
X160777Y191431D01*
X161106Y190638D01*
X161629Y189956D01*
X162311Y189433D01*
X163105Y189104D01*
X163957Y188991D01*
X164809Y189104D01*
X165603Y189433D01*
X166284Y189956D01*
X166808Y190638D01*
X167137Y191431D01*
X167249Y192283D01*
Y194843D01*
X167137Y195694D01*
X166808Y196488D01*
X166284Y197170D01*
X165603Y197693D01*
X164809Y198022D01*
X163957Y198134D01*
D02*
G37*
G36*
X221937Y191703D02*
X221162Y191601D01*
X220440Y191302D01*
X219820Y190826D01*
X219344Y190206D01*
X219045Y189484D01*
X218943Y188709D01*
Y186346D01*
X219045Y185572D01*
X219344Y184849D01*
X219820Y184229D01*
X220440Y183754D01*
X221162Y183454D01*
X221937Y183352D01*
X222712Y183454D01*
X223434Y183754D01*
X224054Y184229D01*
X224530Y184849D01*
X224829Y185572D01*
X224931Y186346D01*
Y188709D01*
X224829Y189484D01*
X224530Y190206D01*
X224054Y190826D01*
X223434Y191302D01*
X222712Y191601D01*
X221937Y191703D01*
D02*
G37*
G36*
X205520Y192681D02*
X204732D01*
X204342Y192603D01*
X204011Y192382D01*
X203790Y192052D01*
X203713Y191661D01*
Y187724D01*
X203790Y187334D01*
X204011Y187004D01*
X204342Y186782D01*
X204732Y186705D01*
X205520D01*
X205910Y186782D01*
X206241Y187004D01*
X206462Y187334D01*
X206539Y187724D01*
Y191661D01*
X206462Y192052D01*
X206241Y192382D01*
X205910Y192603D01*
X205520Y192681D01*
D02*
G37*
G36*
X221937Y173081D02*
X221162Y172979D01*
X220440Y172680D01*
X219820Y172204D01*
X219344Y171584D01*
X219045Y170862D01*
X218943Y170087D01*
Y167724D01*
X219045Y166949D01*
X219344Y166227D01*
X219820Y165607D01*
X220440Y165131D01*
X221162Y164832D01*
X221937Y164730D01*
X222712Y164832D01*
X223434Y165131D01*
X224054Y165607D01*
X224530Y166227D01*
X224829Y166949D01*
X224931Y167724D01*
Y170087D01*
X224829Y170862D01*
X224530Y171584D01*
X224054Y172204D01*
X223434Y172680D01*
X222712Y172979D01*
X221937Y173081D01*
D02*
G37*
G36*
X283228Y169996D02*
X279291D01*
X278901Y169918D01*
X278570Y169697D01*
X278349Y169367D01*
X278272Y168976D01*
Y168189D01*
X278349Y167799D01*
X278570Y167468D01*
X278901Y167247D01*
X279291Y167169D01*
X283228D01*
X283618Y167247D01*
X283949Y167468D01*
X284170Y167799D01*
X284248Y168189D01*
Y168976D01*
X284170Y169367D01*
X283949Y169697D01*
X283618Y169918D01*
X283228Y169996D01*
D02*
G37*
G36*
X112795Y173531D02*
X104921D01*
X104531Y173454D01*
X104200Y173233D01*
X103979Y172902D01*
X103902Y172512D01*
Y162669D01*
X103979Y162279D01*
X104200Y161948D01*
X104531Y161727D01*
X104921Y161650D01*
X112795D01*
X113186Y161727D01*
X113516Y161948D01*
X113737Y162279D01*
X113815Y162669D01*
Y172512D01*
X113737Y172902D01*
X113516Y173233D01*
X113186Y173454D01*
X112795Y173531D01*
D02*
G37*
G36*
X188315Y173081D02*
X187540Y172979D01*
X186818Y172680D01*
X186198Y172204D01*
X185722Y171584D01*
X185423Y170862D01*
X185321Y170087D01*
Y167724D01*
X185423Y166949D01*
X185722Y166227D01*
X186198Y165607D01*
X186818Y165131D01*
X187540Y164832D01*
X188315Y164730D01*
X189090Y164832D01*
X189812Y165131D01*
X190432Y165607D01*
X190908Y166227D01*
X191207Y166949D01*
X191309Y167724D01*
Y170087D01*
X191207Y170862D01*
X190908Y171584D01*
X190432Y172204D01*
X189812Y172680D01*
X189090Y172979D01*
X188315Y173081D01*
D02*
G37*
G36*
X28559Y187987D02*
Y168323D01*
X48223D01*
X48111Y170029D01*
X47582Y172688D01*
X46711Y175256D01*
X45511Y177688D01*
X44005Y179942D01*
X42217Y181981D01*
X40178Y183769D01*
X37924Y185275D01*
X35492Y186474D01*
X32924Y187346D01*
X30265Y187875D01*
X28559Y187987D01*
D02*
G37*
G36*
X205520Y180476D02*
X204732D01*
X204342Y180399D01*
X204011Y180178D01*
X203790Y179847D01*
X203713Y179457D01*
Y175520D01*
X203790Y175129D01*
X204011Y174799D01*
X204342Y174578D01*
X204732Y174500D01*
X205520D01*
X205910Y174578D01*
X206241Y174799D01*
X206462Y175129D01*
X206539Y175520D01*
Y179457D01*
X206462Y179847D01*
X206241Y180178D01*
X205910Y180399D01*
X205520Y180476D01*
D02*
G37*
G36*
X154705Y182181D02*
X152933D01*
X152543Y182103D01*
X152539Y182101D01*
X152536Y182103D01*
X152146Y182181D01*
X150374D01*
X149984Y182103D01*
X149980Y182101D01*
X149977Y182103D01*
X149587Y182181D01*
X147815D01*
X147425Y182103D01*
X147421Y182101D01*
X147418Y182103D01*
X147028Y182181D01*
X145256D01*
X144866Y182103D01*
X144862Y182101D01*
X144859Y182103D01*
X144468Y182181D01*
X142697D01*
X142307Y182103D01*
X141976Y181882D01*
X141755Y181552D01*
X141677Y181161D01*
Y179194D01*
X141560Y178602D01*
Y172362D01*
X141714Y171588D01*
X142152Y170932D01*
X144239Y168845D01*
X144895Y168406D01*
X145669Y168253D01*
X151666D01*
X152441Y168406D01*
X153097Y168845D01*
X155250Y170998D01*
X155688Y171654D01*
X155842Y172428D01*
Y178602D01*
X155724Y179194D01*
Y181161D01*
X155647Y181552D01*
X155426Y181882D01*
X155095Y182103D01*
X154705Y182181D01*
D02*
G37*
G36*
X98622Y172547D02*
X96653D01*
X96263Y172470D01*
X96063Y172336D01*
X95863Y172470D01*
X95473Y172547D01*
X93504D01*
X93114Y172470D01*
X92913Y172336D01*
X92713Y172470D01*
X92323Y172547D01*
X90354D01*
X89964Y172470D01*
X89764Y172336D01*
X89563Y172470D01*
X89173Y172547D01*
X87205D01*
X86814Y172470D01*
X86614Y172336D01*
X86414Y172470D01*
X86024Y172547D01*
X84055D01*
X83665Y172470D01*
X83334Y172248D01*
X83113Y171918D01*
X83035Y171528D01*
Y167195D01*
X83016Y167098D01*
Y161024D01*
X83170Y160249D01*
X83609Y159593D01*
X87152Y156050D01*
X87809Y155611D01*
X88583Y155457D01*
X94488D01*
X95262Y155611D01*
X95919Y156050D01*
X99068Y159199D01*
X99507Y159856D01*
X99661Y160630D01*
Y167098D01*
X99642Y167195D01*
Y171528D01*
X99564Y171918D01*
X99343Y172248D01*
X99012Y172470D01*
X98622Y172547D01*
D02*
G37*
G36*
X158543Y185361D02*
X158445Y185342D01*
X158344D01*
X157730Y185220D01*
X157362Y185067D01*
X156842Y184719D01*
X156842Y184719D01*
X156560Y184438D01*
X156560Y184438D01*
X156212Y183917D01*
X156060Y183550D01*
X155938Y182935D01*
Y182537D01*
X156060Y181923D01*
X156212Y181555D01*
X156560Y181034D01*
X156560Y181034D01*
X156842Y180753D01*
X156842Y180753D01*
X157362Y180405D01*
X157730Y180253D01*
X158344Y180131D01*
X158445D01*
X158543Y180111D01*
X158642Y180131D01*
X158742D01*
X159041Y180190D01*
X159492Y179788D01*
X159478Y179685D01*
Y177520D01*
X159611Y176514D01*
X159999Y175576D01*
X160617Y174771D01*
X161422Y174153D01*
X162360Y173765D01*
X163366Y173632D01*
X164372Y173765D01*
X165310Y174153D01*
X166115Y174771D01*
X166733Y175576D01*
X167121Y176514D01*
X167254Y177520D01*
Y179685D01*
X167121Y180691D01*
X166733Y181629D01*
X166115Y182434D01*
X165310Y183052D01*
X164372Y183440D01*
X163366Y183573D01*
X162360Y183440D01*
X161619Y183133D01*
X161141Y183320D01*
X161056Y183401D01*
X161027Y183550D01*
X160874Y183917D01*
X160526Y184438D01*
X160526Y184438D01*
X160245Y184719D01*
X160245Y184719D01*
X159724Y185067D01*
X159357Y185220D01*
X158742Y185342D01*
X158642D01*
X158543Y185361D01*
D02*
G37*
G36*
X240429Y84500D02*
X237735D01*
X238114Y83586D01*
X238722Y82793D01*
X239515Y82185D01*
X240429Y81806D01*
Y84500D01*
D02*
G37*
G36*
X242429Y89194D02*
Y86500D01*
X245123D01*
X244744Y87414D01*
X244136Y88207D01*
X243343Y88815D01*
X242429Y89194D01*
D02*
G37*
G36*
X110004Y92185D02*
X108150D01*
Y85374D01*
X111023D01*
Y91165D01*
X110946Y91556D01*
X110725Y91886D01*
X110394Y92107D01*
X110004Y92185D01*
D02*
G37*
G36*
X280276Y154766D02*
X277913D01*
X277138Y154664D01*
X276416Y154365D01*
X275796Y153889D01*
X275320Y153269D01*
X275021Y152547D01*
X274919Y151772D01*
X275021Y150997D01*
X275320Y150275D01*
X275796Y149654D01*
X276416Y149179D01*
X277138Y148880D01*
X277913Y148777D01*
X280276D01*
X281050Y148880D01*
X281773Y149179D01*
X282393Y149654D01*
X282869Y150275D01*
X283168Y150997D01*
X283270Y151772D01*
X283168Y152547D01*
X282869Y153269D01*
X282393Y153889D01*
X281773Y154365D01*
X281050Y154664D01*
X280276Y154766D01*
D02*
G37*
%LPD*%
D10*
X107150Y84374D02*
D03*
X82740D02*
D03*
D11*
X194299Y159457D02*
D03*
X196268D02*
D03*
X198236D02*
D03*
X200205D02*
D03*
X202173D02*
D03*
X204142D02*
D03*
X206110D02*
D03*
X208079D02*
D03*
X210047D02*
D03*
X212016D02*
D03*
X213984D02*
D03*
X215953D02*
D03*
D12*
X205126Y189693D02*
D03*
Y177488D02*
D03*
D13*
X146142Y178602D02*
D03*
X148701D02*
D03*
X151260D02*
D03*
X143583D02*
D03*
X153819D02*
D03*
D14*
X88189Y167098D02*
D03*
X91339D02*
D03*
X94488D02*
D03*
X85039D02*
D03*
X97638D02*
D03*
D15*
X108858Y167591D02*
D03*
Y189244D02*
D03*
X73819D02*
D03*
Y167591D02*
D03*
D16*
X251024Y179409D02*
D03*
Y177441D02*
D03*
Y175472D02*
D03*
Y173504D02*
D03*
Y171535D02*
D03*
Y169567D02*
D03*
Y167598D02*
D03*
Y165630D02*
D03*
Y163661D02*
D03*
Y161693D02*
D03*
Y159724D02*
D03*
Y157756D02*
D03*
D17*
X281260Y168583D02*
D03*
X269055D02*
D03*
D18*
X255945Y179409D02*
X257638Y181102D01*
X251024Y179409D02*
X255945D01*
X245079Y163661D02*
X251024D01*
X245079Y173504D02*
X251024D01*
X257008Y156496D02*
X263512D01*
X255945Y157559D02*
X257008Y156496D01*
X257638Y181102D02*
X262795D01*
X215953Y154929D02*
Y159457D01*
X210047Y154929D02*
Y159457D01*
X200205Y155110D02*
Y159457D01*
X194299Y155110D02*
X194882Y154528D01*
X194299Y155110D02*
Y159457D01*
X200205Y164181D02*
X200402Y164378D01*
X200205Y159457D02*
Y164181D01*
X197252Y164378D02*
X200402D01*
X194102D02*
X197252D01*
X194299Y159457D02*
Y164181D01*
X210047Y159457D02*
Y164181D01*
X215953Y159457D02*
Y164181D01*
X194102Y164378D02*
X194299Y164181D01*
X255945Y179409D02*
Y179606D01*
Y176457D02*
Y179409D01*
Y157559D02*
Y160709D01*
X251024Y157756D02*
X255748D01*
X251024Y173504D02*
X255748D01*
X251024Y163661D02*
X255748D01*
Y157756D02*
X255945Y157559D01*
X255748Y163661D02*
X255945Y163858D01*
X255748Y173504D02*
X255945Y173307D01*
X210047Y164181D02*
X215953D01*
D19*
X245079Y167323D02*
Y169291D01*
Y163661D02*
Y167323D01*
X268701Y145669D02*
X282480Y131890D01*
X255906Y145669D02*
X268701D01*
X245079Y156496D02*
X255906Y145669D01*
X245079Y156496D02*
Y163661D01*
X143583Y172362D02*
Y178602D01*
Y172362D02*
X145669Y170276D01*
X151666D01*
X153819Y172428D01*
Y178602D01*
X282480Y79724D02*
Y131890D01*
X263779Y61024D02*
X282480Y79724D01*
X263512Y156496D02*
X286417Y133591D01*
Y58071D02*
Y133591D01*
X255906Y27559D02*
X286417Y58071D01*
X262795Y157213D02*
X263512Y156496D01*
X107150Y50331D02*
Y84374D01*
X82740Y55181D02*
Y84374D01*
X234252Y61024D02*
X263779D01*
X200787Y27559D02*
X234252Y61024D01*
X181102Y27559D02*
X200787D01*
X107150Y50331D02*
X122047Y35433D01*
X55118Y27559D02*
X82740Y55181D01*
X88583Y157480D02*
X94488D01*
X85039Y161024D02*
X88583Y157480D01*
X85039Y161024D02*
Y167098D01*
X94488Y157480D02*
X97638Y160630D01*
Y167098D01*
D20*
X241417Y167323D02*
X245079D01*
X241417Y169291D02*
X245079D01*
X263071Y164370D02*
X266732D01*
X263071Y162402D02*
X266732D01*
D21*
X27559Y92520D02*
X31224Y96185D01*
D22*
X245079Y168937D02*
D03*
D23*
X262795Y168799D02*
D03*
D24*
X47244Y16732D02*
D03*
D25*
X122047D02*
D03*
X255906D02*
D03*
D26*
X181102Y16732D02*
D03*
D27*
X16732Y92520D02*
D03*
Y167323D02*
D03*
D28*
X241429Y103217D02*
D03*
Y95342D02*
D03*
Y113059D02*
D03*
Y85500D02*
D03*
D29*
X252098Y73413D02*
D03*
Y125146D02*
D03*
D30*
X47244Y27559D02*
D03*
X255906D02*
D03*
X181102D02*
D03*
X122047D02*
D03*
X27559Y92520D02*
D03*
X27559Y167323D02*
D03*
D31*
X206701Y164378D02*
D03*
X203551D02*
D03*
X209850D02*
D03*
X200402D02*
D03*
X213000D02*
D03*
X197252D02*
D03*
X216150D02*
D03*
X194102D02*
D03*
X208276Y167134D02*
D03*
X201976D02*
D03*
X211425D02*
D03*
X198827D02*
D03*
X214575D02*
D03*
X195677D02*
D03*
X255945Y167008D02*
D03*
Y170158D02*
D03*
Y163858D02*
D03*
Y173307D02*
D03*
Y160709D02*
D03*
Y176457D02*
D03*
Y157559D02*
D03*
Y179606D02*
D03*
X258701Y165433D02*
D03*
Y171732D02*
D03*
Y162284D02*
D03*
Y174882D02*
D03*
Y159134D02*
D03*
Y178032D02*
D03*
D32*
X188315Y168905D02*
D03*
X221937D02*
D03*
X188315Y187528D02*
D03*
X221937D02*
D03*
D33*
X138858Y182736D02*
D03*
X158543D02*
D03*
D34*
X133445Y193563D02*
D03*
X163957D02*
D03*
D35*
X134035Y178602D02*
D03*
X163366D02*
D03*
D36*
X260472Y185394D02*
D03*
Y151772D02*
D03*
X279095Y185394D02*
D03*
Y151772D02*
D03*
M02*
