M48
;Layer_Color=9474304
;FILE_FORMAT=2:5
INCH,LZ
;TYPE=PLATED
T2F00S00C0.02165
T3F00S00C0.02362
T4F00S00C0.03346
;TYPE=NON_PLATED
%
G90
G05
T02
G00X0133445Y0194843
M15
G01Y0192283
M16
G00X0163957Y0194843
M15
G01Y0192283
M16
T03
G00X0261653Y0151772
M15
G01X0259291
M16
G00X0280276Y0151772
M15
G01X0277913
M16
G00X0280276Y0185394
M15
G01X0277913
M16
G00X0261653Y0185394
M15
G01X0259291
M16
G00X0221937Y0188709
M15
G01Y0186346
M16
G00X0221937Y0170087
M15
G01Y0167724
M16
G00X0188315Y0170087
M15
G01Y0167724
M16
G00X0188315Y0188709
M15
G01Y0186346
M16
T04
G00X0134035Y0179685
M15
G01Y017752
M16
G00X0163366Y0179685
M15
G01Y017752
M16
M17
M30
