G04 Layer_Color=16711935*
%FSLAX25Y25*%
%MOIN*%
G70*
G01*
G75*
%ADD47R,0.40170X0.22454*%
%ADD48R,0.40170X0.22454*%
%ADD50R,0.22454X0.40170*%
%ADD51C,0.06391*%
%ADD52C,0.14383*%
%ADD53C,0.40170*%
%ADD54C,0.03359*%
%ADD55O,0.04737X0.07099*%
%ADD56C,0.03950*%
%ADD57O,0.05328X0.07887*%
%ADD58O,0.06509X0.08674*%
%ADD59O,0.07099X0.04737*%
D47*
X47244Y16732D02*
D03*
D48*
X122047D02*
D03*
X181102D02*
D03*
X255906D02*
D03*
D50*
X16732Y167323D02*
D03*
Y92520D02*
D03*
D51*
X241429Y103217D02*
D03*
Y95342D02*
D03*
Y113059D02*
D03*
Y85500D02*
D03*
D52*
X252098Y73413D02*
D03*
Y125146D02*
D03*
D53*
X47244Y27559D02*
D03*
X255906D02*
D03*
X181102D02*
D03*
X122047D02*
D03*
X27559Y92520D02*
D03*
X27559Y167323D02*
D03*
D54*
X206701Y164378D02*
D03*
X203551D02*
D03*
X209850D02*
D03*
X200402D02*
D03*
X213000D02*
D03*
X197252D02*
D03*
X216150D02*
D03*
X194102D02*
D03*
X208276Y167134D02*
D03*
X201976D02*
D03*
X211425D02*
D03*
X198827D02*
D03*
X214575D02*
D03*
X195677D02*
D03*
X255945Y167008D02*
D03*
Y170158D02*
D03*
Y163858D02*
D03*
Y173307D02*
D03*
Y160709D02*
D03*
Y176457D02*
D03*
Y157559D02*
D03*
Y179606D02*
D03*
X258701Y165433D02*
D03*
Y171732D02*
D03*
Y162284D02*
D03*
Y174882D02*
D03*
Y159134D02*
D03*
Y178032D02*
D03*
D55*
X188315Y168905D02*
D03*
X221937D02*
D03*
X188315Y187528D02*
D03*
X221937D02*
D03*
D56*
X138858Y182736D02*
D03*
X158543D02*
D03*
D57*
X133445Y193563D02*
D03*
X163957D02*
D03*
D58*
X134035Y178602D02*
D03*
X163366D02*
D03*
D59*
X260472Y185394D02*
D03*
Y151772D02*
D03*
X279095Y185394D02*
D03*
Y151772D02*
D03*
M02*
